<svg xmlns="http://www.w3.org/2000/svg" width="134.064" height="75.724" viewBox="0 0 134.064 75.724">
  <g id="Logo" transform="translate(-53.462 -35)">
    <g id="Group_13337" data-name="Group 13337" transform="translate(96 35)">
      <path id="Subtraction_39" data-name="Subtraction 39" d="M23.084,46.169A23.09,23.09,0,0,1,14.1,1.814,23.09,23.09,0,0,1,32.07,44.354,22.939,22.939,0,0,1,23.084,46.169Zm0-34.815A11.731,11.731,0,1,0,34.815,23.084,11.744,11.744,0,0,0,23.084,11.353Z" transform="translate(0 0)" fill="#005cda"/>
      <path id="Union_4" data-name="Union 4" d="M4.881,34.17,5,34.164l-.005-.023A11.763,11.763,0,0,0,12.8,23.084a11.733,11.733,0,0,0-9.57-11.531,6.077,6.077,0,0,0,3.515-5.5A6.091,6.091,0,0,0,.838,0h.232a22.941,22.941,0,0,1,8.985,1.814,23.014,23.014,0,0,1,7.338,4.947A23.014,23.014,0,0,1,22.34,14.1a23.161,23.161,0,0,1,0,17.971,23,23,0,0,1-4.947,7.338,23.137,23.137,0,0,1-3.886,3.131c-4.336,4-9.366,2.523-13.281,10.1C-1.234,39.253,4.881,34.17,4.881,34.17Z" transform="translate(22.015 0)" fill="#bbdbfc"/>
    </g>
    <path id="Path_10484" data-name="Path 10484" d="M.462-4.928a5.283,5.283,0,0,1,.63-2.6A4.5,4.5,0,0,1,2.849-9.3,5.1,5.1,0,0,1,5.4-9.94a4.889,4.889,0,0,1,3,.924A4.437,4.437,0,0,1,10.066-6.5H7.434A2.126,2.126,0,0,0,6.6-7.434a2.342,2.342,0,0,0-1.225-.322,2.286,2.286,0,0,0-1.792.77A2.98,2.98,0,0,0,2.9-4.928,2.98,2.98,0,0,0,3.584-2.87a2.286,2.286,0,0,0,1.792.77A2.342,2.342,0,0,0,6.6-2.422a2.126,2.126,0,0,0,.833-.938h2.632A4.405,4.405,0,0,1,8.4-.847,4.915,4.915,0,0,1,5.4.07,5.1,5.1,0,0,1,2.849-.567,4.515,4.515,0,0,1,1.092-2.338,5.243,5.243,0,0,1,.462-4.928ZM13.93-10.36V0H11.536V-10.36Zm9.45,2.548V0H20.986V-1.064A2.627,2.627,0,0,1,20-.231,3.012,3.012,0,0,1,18.62.084a3.089,3.089,0,0,1-1.582-.4A2.69,2.69,0,0,1,15.974-1.47,3.93,3.93,0,0,1,15.6-3.248V-7.812h2.38V-3.57a1.714,1.714,0,0,0,.406,1.218,1.424,1.424,0,0,0,1.092.434,1.441,1.441,0,0,0,1.106-.434,1.714,1.714,0,0,0,.406-1.218V-7.812ZM27.5-6.706a2.464,2.464,0,0,1,.966-.882A3.017,3.017,0,0,1,29.9-7.924a3.235,3.235,0,0,1,1.75.49,3.394,3.394,0,0,1,1.239,1.4,4.669,4.669,0,0,1,.455,2.114A4.713,4.713,0,0,1,32.893-1.8,3.434,3.434,0,0,1,31.654-.385a3.2,3.2,0,0,1-1.75.5,3.017,3.017,0,0,1-1.442-.329,2.544,2.544,0,0,1-.966-.875V0H25.1V-10.36H27.5ZM30.912-3.92a1.932,1.932,0,0,0-.5-1.407,1.641,1.641,0,0,0-1.225-.511,1.615,1.615,0,0,0-1.211.518,1.957,1.957,0,0,0-.5,1.414,1.957,1.957,0,0,0,.5,1.414,1.615,1.615,0,0,0,1.211.518A1.627,1.627,0,0,0,30.408-2.5,1.966,1.966,0,0,0,30.912-3.92Zm13.664,5.6L43.316-.014A5.562,5.562,0,0,1,42.224.1a5.129,5.129,0,0,1-2.541-.644,4.814,4.814,0,0,1-1.834-1.8,5.028,5.028,0,0,1-.679-2.6,4.991,4.991,0,0,1,.679-2.59,4.829,4.829,0,0,1,1.834-1.792,5.129,5.129,0,0,1,2.541-.644,5.129,5.129,0,0,1,2.541.644,4.728,4.728,0,0,1,1.82,1.792,5.072,5.072,0,0,1,.665,2.59,5.163,5.163,0,0,1-.511,2.3A4.748,4.748,0,0,1,45.318-.91l2.156,2.59ZM39.62-4.942a2.971,2.971,0,0,0,.707,2.079,2.439,2.439,0,0,0,1.9.777,2.412,2.412,0,0,0,1.883-.784,2.976,2.976,0,0,0,.707-2.072,2.971,2.971,0,0,0-.707-2.079A2.422,2.422,0,0,0,42.224-7.8a2.45,2.45,0,0,0-1.9.77A2.965,2.965,0,0,0,39.62-4.942Zm16.7-2.87V0H53.928V-1.064a2.627,2.627,0,0,1-.987.833,3.012,3.012,0,0,1-1.379.315,3.089,3.089,0,0,1-1.582-.4A2.69,2.69,0,0,1,48.916-1.47a3.93,3.93,0,0,1-.378-1.778V-7.812h2.38V-3.57a1.714,1.714,0,0,0,.406,1.218,1.424,1.424,0,0,0,1.092.434,1.441,1.441,0,0,0,1.106-.434,1.714,1.714,0,0,0,.406-1.218V-7.812Zm9.086,3.78a6.111,6.111,0,0,1-.042.7H59.948a1.628,1.628,0,0,0,.469,1.113,1.433,1.433,0,0,0,1.015.385,1.258,1.258,0,0,0,1.246-.756h2.548A3.5,3.5,0,0,1,64.519-1.2a3.54,3.54,0,0,1-1.281.966,4.115,4.115,0,0,1-1.722.35,4.19,4.19,0,0,1-2.044-.49,3.485,3.485,0,0,1-1.4-1.4,4.322,4.322,0,0,1-.5-2.128,4.371,4.371,0,0,1,.5-2.128,3.44,3.44,0,0,1,1.393-1.4,4.22,4.22,0,0,1,2.058-.49,4.177,4.177,0,0,1,2.016.476A3.418,3.418,0,0,1,64.911-6.09,4.122,4.122,0,0,1,65.408-4.032Zm-2.45-.63a1.231,1.231,0,0,0-.42-.98,1.546,1.546,0,0,0-1.05-.364,1.516,1.516,0,0,0-1.015.35,1.555,1.555,0,0,0-.511.994ZM69.846.112a4.49,4.49,0,0,1-1.82-.35,3.108,3.108,0,0,1-1.26-.959,2.522,2.522,0,0,1-.518-1.365h2.366a.91.91,0,0,0,.378.658,1.337,1.337,0,0,0,.826.252,1.179,1.179,0,0,0,.693-.175.536.536,0,0,0,.245-.455.525.525,0,0,0-.35-.5,7.071,7.071,0,0,0-1.134-.357,10.647,10.647,0,0,1-1.4-.413,2.419,2.419,0,0,1-.966-.686A1.87,1.87,0,0,1,66.5-5.5a2.151,2.151,0,0,1,.371-1.225A2.5,2.5,0,0,1,67.963-7.6a4.181,4.181,0,0,1,1.715-.322A3.438,3.438,0,0,1,72-7.2a2.833,2.833,0,0,1,.973,1.932H70.756a.953.953,0,0,0-.357-.644,1.238,1.238,0,0,0-.791-.238,1.094,1.094,0,0,0-.644.161.514.514,0,0,0-.224.441.538.538,0,0,0,.357.5A5.718,5.718,0,0,0,70.21-4.7a12.176,12.176,0,0,1,1.414.441,2.439,2.439,0,0,1,.959.7,1.981,1.981,0,0,1,.427,1.295,2.055,2.055,0,0,1-.385,1.225A2.546,2.546,0,0,1,71.519-.2,4.23,4.23,0,0,1,69.846.112ZM78.834-2.03V0H77.616a2.981,2.981,0,0,1-2.03-.637,2.632,2.632,0,0,1-.728-2.079V-5.824h-.952V-7.812h.952v-1.9h2.394v1.9H78.82v1.988H77.252v3.136a.656.656,0,0,0,.168.5.82.82,0,0,0,.56.154Zm3.892-2.9a5.283,5.283,0,0,1,.63-2.6A4.5,4.5,0,0,1,85.113-9.3a5.1,5.1,0,0,1,2.555-.637,4.889,4.889,0,0,1,3,.924A4.437,4.437,0,0,1,92.33-6.5H89.7a2.126,2.126,0,0,0-.833-.938,2.342,2.342,0,0,0-1.225-.322,2.286,2.286,0,0,0-1.792.77,2.98,2.98,0,0,0-.686,2.058,2.98,2.98,0,0,0,.686,2.058,2.286,2.286,0,0,0,1.792.77,2.342,2.342,0,0,0,1.225-.322A2.126,2.126,0,0,0,89.7-3.36H92.33A4.405,4.405,0,0,1,90.664-.847a4.915,4.915,0,0,1-3,.917,5.1,5.1,0,0,1-2.555-.637,4.515,4.515,0,0,1-1.757-1.771A5.243,5.243,0,0,1,82.726-4.928Zm10.6,1.008a4.669,4.669,0,0,1,.455-2.114,3.394,3.394,0,0,1,1.239-1.4,3.235,3.235,0,0,1,1.75-.49,3.006,3.006,0,0,1,1.449.336,2.475,2.475,0,0,1,.959.882V-7.812h2.394V0H99.176V-1.106a2.585,2.585,0,0,1-.973.882,3.006,3.006,0,0,1-1.449.336,3.176,3.176,0,0,1-1.736-.5A3.434,3.434,0,0,1,93.779-1.8,4.713,4.713,0,0,1,93.324-3.92Zm5.852.014a1.957,1.957,0,0,0-.5-1.414,1.615,1.615,0,0,0-1.211-.518,1.625,1.625,0,0,0-1.211.511,1.932,1.932,0,0,0-.5,1.407,1.982,1.982,0,0,0,.5,1.421,1.6,1.6,0,0,0,1.211.525,1.615,1.615,0,0,0,1.211-.518A1.957,1.957,0,0,0,99.176-3.906Zm6.524-2.8a2.6,2.6,0,0,1,.966-.882,2.965,2.965,0,0,1,1.442-.336,3.235,3.235,0,0,1,1.75.49,3.394,3.394,0,0,1,1.239,1.4,4.669,4.669,0,0,1,.455,2.114A4.713,4.713,0,0,1,111.1-1.8a3.434,3.434,0,0,1-1.239,1.414,3.2,3.2,0,0,1-1.75.5,2.976,2.976,0,0,1-1.435-.336,2.631,2.631,0,0,1-.973-.868V3.724h-2.394V-7.812H105.7Zm3.416,2.786a1.932,1.932,0,0,0-.5-1.407,1.641,1.641,0,0,0-1.225-.511,1.615,1.615,0,0,0-1.211.518,1.957,1.957,0,0,0-.5,1.414,1.957,1.957,0,0,0,.5,1.414,1.615,1.615,0,0,0,1.211.518,1.627,1.627,0,0,0,1.218-.525A1.966,1.966,0,0,0,109.116-3.92Zm4.9-4.7A1.451,1.451,0,0,1,112.987-9a1.2,1.2,0,0,1-.4-.917,1.218,1.218,0,0,1,.4-.931,1.451,1.451,0,0,1,1.029-.371,1.432,1.432,0,0,1,1.015.371,1.218,1.218,0,0,1,.4.931,1.2,1.2,0,0,1-.4.917A1.432,1.432,0,0,1,114.016-8.624Zm1.19.812V0h-2.394V-7.812ZM121.3-2.03V0h-1.218a2.981,2.981,0,0,1-2.03-.637,2.632,2.632,0,0,1-.728-2.079V-5.824h-.952V-7.812h.952v-1.9h2.394v1.9h1.568v1.988h-1.568v3.136a.656.656,0,0,0,.168.5.82.82,0,0,0,.56.154Zm.854-1.89a4.669,4.669,0,0,1,.455-2.114,3.394,3.394,0,0,1,1.239-1.4,3.235,3.235,0,0,1,1.75-.49,3.006,3.006,0,0,1,1.449.336,2.475,2.475,0,0,1,.959.882V-7.812H130.4V0H128V-1.106a2.585,2.585,0,0,1-.973.882,3.006,3.006,0,0,1-1.449.336,3.176,3.176,0,0,1-1.736-.5A3.434,3.434,0,0,1,122.6-1.8,4.713,4.713,0,0,1,122.15-3.92ZM128-3.906a1.957,1.957,0,0,0-.5-1.414,1.615,1.615,0,0,0-1.211-.518,1.625,1.625,0,0,0-1.211.511,1.932,1.932,0,0,0-.5,1.407,1.982,1.982,0,0,0,.5,1.421,1.6,1.6,0,0,0,1.211.525,1.615,1.615,0,0,0,1.211-.518A1.957,1.957,0,0,0,128-3.906Zm6.524-6.454V0h-2.394V-10.36Z" transform="translate(53 107)"/>
  </g>
</svg>
