<svg xmlns="http://www.w3.org/2000/svg" width="98.513" height="55.644" viewBox="0 0 98.513 55.644">
  <g id="Club_Quest_Capital_Logo" data-name="Club Quest Capital Logo" transform="translate(0 0.001)">
    <g id="Group_13337" data-name="Group 13337" transform="translate(32.271 -0.001)">
      <path id="Subtraction_39" data-name="Subtraction 39" d="M16.963,33.926a16.967,16.967,0,0,1-6.6-32.593A16.967,16.967,0,0,1,23.565,32.593,16.856,16.856,0,0,1,16.963,33.926Zm0-25.583a8.62,8.62,0,1,0,8.62,8.62A8.63,8.63,0,0,0,16.963,8.342Z" transform="translate(0 0)" fill="#005cda"/>
      <path id="Union_4" data-name="Union 4" d="M3.587,25.109l.086,0,0-.017a8.644,8.644,0,0,0,5.737-8.125A8.621,8.621,0,0,0,2.374,8.49a4.465,4.465,0,0,0,2.583-4.04A4.476,4.476,0,0,0,.616,0h.17a16.857,16.857,0,0,1,6.6,1.333A16.911,16.911,0,0,1,12.78,4.968a16.911,16.911,0,0,1,3.635,5.392,17.019,17.019,0,0,1,0,13.205,16.9,16.9,0,0,1-3.635,5.392,17,17,0,0,1-2.856,2.3C6.738,34.2,3.043,33.112.165,38.681-.906,28.844,3.587,25.109,3.587,25.109Z" transform="translate(16.177 0)" fill="#bbdbfc"/>
    </g>
    <path id="Path_10484" data-name="Path 10484" d="M.462-6.595A3.882,3.882,0,0,1,.925-8.5,3.309,3.309,0,0,1,2.216-9.81a3.748,3.748,0,0,1,1.877-.468A3.592,3.592,0,0,1,6.3-9.6,3.261,3.261,0,0,1,7.519-7.747H5.585a1.562,1.562,0,0,0-.612-.689,1.721,1.721,0,0,0-.9-.237,1.68,1.68,0,0,0-1.317.566,2.189,2.189,0,0,0-.5,1.512,2.189,2.189,0,0,0,.5,1.512,1.68,1.68,0,0,0,1.317.566,1.721,1.721,0,0,0,.9-.237,1.562,1.562,0,0,0,.612-.689H7.519A3.237,3.237,0,0,1,6.3-3.6a3.611,3.611,0,0,1-2.2.674A3.748,3.748,0,0,1,2.216-3.39a3.318,3.318,0,0,1-1.291-1.3A3.853,3.853,0,0,1,.462-6.595Zm9.9-3.992v7.613H8.6v-7.613ZM17.3-8.714v5.74H15.543v-.782a1.931,1.931,0,0,1-.725.612,2.213,2.213,0,0,1-1.013.231,2.27,2.27,0,0,1-1.162-.293,1.977,1.977,0,0,1-.782-.849,2.888,2.888,0,0,1-.278-1.307V-8.714h1.749V-5.6a1.26,1.26,0,0,0,.3.9,1.046,1.046,0,0,0,.8.319,1.059,1.059,0,0,0,.813-.319,1.26,1.26,0,0,0,.3-.9V-8.714Zm3.025.813a1.81,1.81,0,0,1,.71-.648A2.217,2.217,0,0,1,22.1-8.8a2.377,2.377,0,0,1,1.286.36,2.494,2.494,0,0,1,.91,1.029,3.431,3.431,0,0,1,.334,1.553A3.463,3.463,0,0,1,24.293-4.3a2.524,2.524,0,0,1-.91,1.039,2.352,2.352,0,0,1-1.286.365,2.217,2.217,0,0,1-1.06-.242,1.869,1.869,0,0,1-.71-.643v.8H18.568v-7.613h1.759Zm2.51,2.047a1.42,1.42,0,0,0-.365-1.034,1.206,1.206,0,0,0-.9-.375,1.187,1.187,0,0,0-.89.381,1.438,1.438,0,0,0-.365,1.039A1.438,1.438,0,0,0,20.682-4.8a1.187,1.187,0,0,0,.89.381,1.2,1.2,0,0,0,.9-.386A1.445,1.445,0,0,0,22.837-5.854ZM32.878-1.739l-.926-1.245a4.087,4.087,0,0,1-.8.082,3.769,3.769,0,0,1-1.867-.473A3.538,3.538,0,0,1,27.935-4.7a3.7,3.7,0,0,1-.5-1.908,3.667,3.667,0,0,1,.5-1.9,3.549,3.549,0,0,1,1.348-1.317A3.769,3.769,0,0,1,31.15-10.3a3.769,3.769,0,0,1,1.867.473,3.474,3.474,0,0,1,1.337,1.317,3.727,3.727,0,0,1,.489,1.9,3.794,3.794,0,0,1-.375,1.692,3.489,3.489,0,0,1-1.044,1.271l1.584,1.9ZM29.236-6.605a2.183,2.183,0,0,0,.52,1.528,1.792,1.792,0,0,0,1.394.571,1.772,1.772,0,0,0,1.384-.576,2.187,2.187,0,0,0,.52-1.523,2.183,2.183,0,0,0-.52-1.528A1.78,1.78,0,0,0,31.15-8.7a1.8,1.8,0,0,0-1.394.566A2.179,2.179,0,0,0,29.236-6.605ZM41.509-8.714v5.74H39.75v-.782a1.931,1.931,0,0,1-.725.612,2.213,2.213,0,0,1-1.013.231,2.27,2.27,0,0,1-1.162-.293,1.977,1.977,0,0,1-.782-.849,2.888,2.888,0,0,1-.278-1.307V-8.714h1.749V-5.6a1.26,1.26,0,0,0,.3.9,1.046,1.046,0,0,0,.8.319,1.059,1.059,0,0,0,.813-.319,1.26,1.26,0,0,0,.3-.9V-8.714Zm6.677,2.778a4.49,4.49,0,0,1-.031.514H44.174a1.2,1.2,0,0,0,.345.818,1.053,1.053,0,0,0,.746.283.924.924,0,0,0,.916-.556h1.872a2.569,2.569,0,0,1-.52,1.018,2.6,2.6,0,0,1-.941.71,3.024,3.024,0,0,1-1.265.257,3.079,3.079,0,0,1-1.5-.36A2.561,2.561,0,0,1,42.8-4.28a3.176,3.176,0,0,1-.37-1.564,3.212,3.212,0,0,1,.365-1.564,2.528,2.528,0,0,1,1.024-1.029,3.1,3.1,0,0,1,1.512-.36,3.07,3.07,0,0,1,1.481.35,2.512,2.512,0,0,1,1.013,1A3.029,3.029,0,0,1,48.186-5.937Zm-1.8-.463a.9.9,0,0,0-.309-.72,1.136,1.136,0,0,0-.772-.267,1.114,1.114,0,0,0-.746.257,1.142,1.142,0,0,0-.376.73Zm5.061,3.508a3.3,3.3,0,0,1-1.337-.257,2.284,2.284,0,0,1-.926-.7,1.854,1.854,0,0,1-.381-1h1.739a.668.668,0,0,0,.278.484.983.983,0,0,0,.607.185.866.866,0,0,0,.509-.129.394.394,0,0,0,.18-.334.386.386,0,0,0-.257-.365,5.2,5.2,0,0,0-.833-.262A7.823,7.823,0,0,1,50-5.582a1.777,1.777,0,0,1-.71-.5,1.374,1.374,0,0,1-.3-.931,1.581,1.581,0,0,1,.273-.9,1.835,1.835,0,0,1,.8-.643,3.073,3.073,0,0,1,1.26-.237,2.526,2.526,0,0,1,1.7.535,2.081,2.081,0,0,1,.715,1.42H52.115a.7.7,0,0,0-.262-.473.91.91,0,0,0-.581-.175.8.8,0,0,0-.473.118.378.378,0,0,0-.165.324.4.4,0,0,0,.262.37,4.2,4.2,0,0,0,.818.247,8.947,8.947,0,0,1,1.039.324,1.792,1.792,0,0,1,.7.514,1.455,1.455,0,0,1,.314.952,1.51,1.51,0,0,1-.283.9,1.871,1.871,0,0,1-.813.622A3.108,3.108,0,0,1,51.447-2.891Zm6.6-1.574v1.492h-.9a2.191,2.191,0,0,1-1.492-.468,1.934,1.934,0,0,1-.535-1.528V-7.253h-.7V-8.714h.7v-1.4h1.759v1.4h1.152v1.461H56.889v2.3a.482.482,0,0,0,.123.37.6.6,0,0,0,.412.113Zm2.86-2.13A3.882,3.882,0,0,1,61.374-8.5,3.308,3.308,0,0,1,62.665-9.81a3.748,3.748,0,0,1,1.877-.468,3.592,3.592,0,0,1,2.2.679,3.261,3.261,0,0,1,1.224,1.852H66.034a1.562,1.562,0,0,0-.612-.689,1.721,1.721,0,0,0-.9-.237,1.68,1.68,0,0,0-1.317.566,2.189,2.189,0,0,0-.5,1.512,2.189,2.189,0,0,0,.5,1.512,1.68,1.68,0,0,0,1.317.566,1.721,1.721,0,0,0,.9-.237,1.562,1.562,0,0,0,.612-.689h1.934A3.237,3.237,0,0,1,66.744-3.6a3.611,3.611,0,0,1-2.2.674,3.748,3.748,0,0,1-1.877-.468,3.318,3.318,0,0,1-1.291-1.3A3.853,3.853,0,0,1,60.911-6.595Zm7.788.741a3.431,3.431,0,0,1,.334-1.553,2.494,2.494,0,0,1,.91-1.029A2.377,2.377,0,0,1,71.23-8.8a2.209,2.209,0,0,1,1.065.247A1.819,1.819,0,0,1,73-7.9v-.813h1.759v5.74H73v-.813a1.9,1.9,0,0,1-.715.648,2.209,2.209,0,0,1-1.065.247,2.334,2.334,0,0,1-1.276-.365,2.524,2.524,0,0,1-.91-1.039A3.463,3.463,0,0,1,68.7-5.854Zm4.3.01a1.438,1.438,0,0,0-.365-1.039,1.187,1.187,0,0,0-.89-.381,1.194,1.194,0,0,0-.89.375,1.42,1.42,0,0,0-.365,1.034,1.457,1.457,0,0,0,.365,1.044,1.179,1.179,0,0,0,.89.386,1.187,1.187,0,0,0,.89-.381A1.438,1.438,0,0,0,73-5.844ZM77.793-7.9a1.91,1.91,0,0,1,.71-.648,2.179,2.179,0,0,1,1.06-.247,2.377,2.377,0,0,1,1.286.36,2.494,2.494,0,0,1,.91,1.029,3.431,3.431,0,0,1,.334,1.553A3.463,3.463,0,0,1,81.759-4.3a2.524,2.524,0,0,1-.91,1.039,2.352,2.352,0,0,1-1.286.365,2.187,2.187,0,0,1-1.054-.247,1.933,1.933,0,0,1-.715-.638V-.237H76.034V-8.714h1.759ZM80.3-5.854a1.42,1.42,0,0,0-.365-1.034,1.206,1.206,0,0,0-.9-.375,1.187,1.187,0,0,0-.89.381,1.438,1.438,0,0,0-.365,1.039A1.438,1.438,0,0,0,78.148-4.8a1.187,1.187,0,0,0,.89.381,1.2,1.2,0,0,0,.9-.386A1.445,1.445,0,0,0,80.3-5.854Zm3.6-3.457a1.066,1.066,0,0,1-.756-.273.883.883,0,0,1-.293-.674.9.9,0,0,1,.293-.684,1.066,1.066,0,0,1,.756-.273,1.052,1.052,0,0,1,.746.273.9.9,0,0,1,.293.684.883.883,0,0,1-.293.674A1.052,1.052,0,0,1,83.9-9.311Zm.874.6v5.74H83.019v-5.74Zm4.475,4.249v1.492h-.9a2.191,2.191,0,0,1-1.492-.468,1.934,1.934,0,0,1-.535-1.528V-7.253h-.7V-8.714h.7v-1.4h1.759v1.4h1.152v1.461H88.091v2.3a.482.482,0,0,0,.123.37.6.6,0,0,0,.411.113Zm.628-1.389a3.431,3.431,0,0,1,.334-1.553,2.494,2.494,0,0,1,.91-1.029,2.377,2.377,0,0,1,1.286-.36,2.209,2.209,0,0,1,1.065.247,1.819,1.819,0,0,1,.7.648v-.813H95.94v5.74H94.181v-.813a1.9,1.9,0,0,1-.715.648,2.209,2.209,0,0,1-1.065.247,2.334,2.334,0,0,1-1.276-.365,2.524,2.524,0,0,1-.91-1.039A3.463,3.463,0,0,1,89.881-5.854Zm4.3.01a1.438,1.438,0,0,0-.365-1.039,1.187,1.187,0,0,0-.89-.381,1.194,1.194,0,0,0-.89.375,1.42,1.42,0,0,0-.365,1.034,1.457,1.457,0,0,0,.365,1.044,1.179,1.179,0,0,0,.89.386,1.187,1.187,0,0,0,.89-.381A1.438,1.438,0,0,0,94.181-5.844Zm4.794-4.743v7.613H97.216v-7.613Z" transform="translate(-0.462 55.88)" fill="#707070"/>
  </g>
</svg>
