<svg id="Deposite" xmlns="http://www.w3.org/2000/svg" width="27" height="27" viewBox="0 0 27 27">
  <g id="Group_13344" data-name="Group 13344" transform="translate(5 4.471)">
    <path id="Path_10477" data-name="Path 10477" d="M422.218,766.281a4.306,4.306,0,0,1-2.41.875,4.3,4.3,0,0,0,2.371-2.265c.045-.106-.277-.254-.382-.3a.207.207,0,0,0-.272.11,3.85,3.85,0,0,1-1.6,1.935,8.777,8.777,0,0,0,.975-3.834H411.4a7.848,7.848,0,0,0,1.562,4.676h6.366l0-.005a3.324,3.324,0,0,0,.952.136,4.5,4.5,0,0,0,2.244-.655c.1-.057.026-.5-.032-.6a.207.207,0,0,0-.283-.078" transform="translate(-407.317 -762.803)" fill="#005CDA"/>
    <path id="Path_10478" data-name="Path 10478" d="M407.548,782.868h-6.514a8.833,8.833,0,0,0-5.575,8.209c0,4.878,3.954,5.3,8.832,5.3s8.832-.422,8.832-5.3a8.833,8.833,0,0,0-5.575-8.209m-.84,8.006a2.011,2.011,0,0,1-1.818,1.789l.006,1.13h-1.09v-1.04a5.018,5.018,0,0,1-1.943-.5l.411-1.275a4.394,4.394,0,0,0,1.062.383c.571.117,1.559.086,1.68-.45.117-.52-.221-.724-.925-.926s-1.935-.777-2.047-1.728c-.122-1.034.347-1.834,1.744-2.13v-1.091h1.09v.957a4.755,4.755,0,0,1,1.538.355l-.263,1.171a5.863,5.863,0,0,0-1.778-.3c-.721.05-.77.782-.257,1.11a15.6,15.6,0,0,0,1.784.819,1.682,1.682,0,0,1,.805,1.728" transform="translate(-395.459 -777.634)" fill="#005CDA"/>
  </g>
  <rect id="Rectangle_6452" data-name="Rectangle 6452" width="27" height="27" fill="none"/>
</svg>
