<svg xmlns="http://www.w3.org/2000/svg" width="25.41" height="20.328" viewBox="0 0 25.41 20.328">
  <path id="eye_icon" data-name="eye icon" d="M12.7,15.881A5.7,5.7,0,0,1,7.031,10.6L2.867,7.377A13.233,13.233,0,0,0,1.409,9.585a1.284,1.284,0,0,0,0,1.159,12.734,12.734,0,0,0,11.3,7.043,12.332,12.332,0,0,0,3.092-.415l-2.06-1.594a5.722,5.722,0,0,1-1.032.1Zm12.46,2.307L20.775,14.8A13.152,13.152,0,0,0,24,10.743a1.284,1.284,0,0,0,0-1.159A12.734,12.734,0,0,0,12.7,2.541a12.234,12.234,0,0,0-5.849,1.5L1.8.134A.635.635,0,0,0,.913.245l-.779,1a.635.635,0,0,0,.112.891L23.6,20.194a.635.635,0,0,0,.892-.112l.78-1a.635.635,0,0,0-.112-.891ZM17.87,12.55l-1.56-1.206A3.762,3.762,0,0,0,11.7,6.5a1.892,1.892,0,0,1,.37,1.12,1.852,1.852,0,0,1-.061.4L9.086,5.761A5.65,5.65,0,0,1,12.7,4.447a5.714,5.714,0,0,1,5.717,5.717,5.582,5.582,0,0,1-.552,2.387Z" transform="translate(0 0)" fill="#707070"/>
</svg>
