<svg xmlns="http://www.w3.org/2000/svg" xmlns:xlink="http://www.w3.org/1999/xlink" width="21.294" height="21.294" viewBox="0 0 21.294 21.294">
  <defs>
    <linearGradient id="linear-gradient" y1="0.5" x2="0.917" y2="0.5" gradientUnits="objectBoundingBox">
      <stop offset="0" stop-color="#706eec"/>
      <stop offset="1" stop-color="#b15bfe"/>
    </linearGradient>
  </defs>
  <g id="footer_whats_app" transform="translate(-1210 -1056)">
    <path id="Path_69177" data-name="Path 69177" d="M18.632,0H2.662A2.664,2.664,0,0,0,0,2.662v15.97a2.664,2.664,0,0,0,2.662,2.662h15.97a2.664,2.664,0,0,0,2.662-2.662V2.662A2.664,2.664,0,0,0,18.632,0Z" transform="translate(1210 1056)" fill="url(#linear-gradient)"/>
    <path id="_773c35cb5b500c4739e94401d758130a" data-name="773c35cb5b500c4739e94401d758130a" d="M7.276,0h0A7.27,7.27,0,0,0,1.385,11.538l-.907,2.7,2.8-.894A7.273,7.273,0,1,0,7.276,0Zm4.233,10.272A2.053,2.053,0,0,1,10.081,11.3c-.38.081-.877.145-2.548-.547a9.113,9.113,0,0,1-3.622-3.2,4.155,4.155,0,0,1-.864-2.194,2.322,2.322,0,0,1,.744-1.77,1.057,1.057,0,0,1,.744-.261c.09,0,.171,0,.244.008.214.009.321.022.462.359.175.423.6,1.467.654,1.574a.433.433,0,0,1,.031.394A1.257,1.257,0,0,1,5.69,6c-.107.124-.209.218-.316.351-.1.115-.209.239-.085.453a6.457,6.457,0,0,0,1.18,1.467A5.348,5.348,0,0,0,8.175,9.319a.46.46,0,0,0,.513-.081,8.8,8.8,0,0,0,.568-.753.406.406,0,0,1,.522-.158c.2.068,1.236.582,1.449.688s.355.158.406.248A1.812,1.812,0,0,1,11.509,10.272Z" transform="translate(1213 1059)" fill="#f6fbfe"/>
    <g id="Group_16417" data-name="Group 16417">
      <path id="Path_69181" data-name="Path 69181" d="M18.632,0H2.662A2.664,2.664,0,0,0,0,2.662v15.97a2.664,2.664,0,0,0,2.662,2.662h15.97a2.664,2.664,0,0,0,2.662-2.662V2.662A2.664,2.664,0,0,0,18.632,0Z" transform="translate(1210 1056)" fill="url(#linear-gradient)"/>
      <path id="_773c35cb5b500c4739e94401d758130a-2" data-name="773c35cb5b500c4739e94401d758130a" d="M7.276,0h0A7.27,7.27,0,0,0,1.385,11.538l-.907,2.7,2.8-.894A7.273,7.273,0,1,0,7.276,0Zm4.233,10.272A2.053,2.053,0,0,1,10.081,11.3c-.38.081-.877.145-2.548-.547a9.113,9.113,0,0,1-3.622-3.2,4.155,4.155,0,0,1-.864-2.194,2.322,2.322,0,0,1,.744-1.77,1.057,1.057,0,0,1,.744-.261c.09,0,.171,0,.244.008.214.009.321.022.462.359.175.423.6,1.467.654,1.574a.433.433,0,0,1,.031.394A1.257,1.257,0,0,1,5.69,6c-.107.124-.209.218-.316.351-.1.115-.209.239-.085.453a6.457,6.457,0,0,0,1.18,1.467A5.348,5.348,0,0,0,8.175,9.319a.46.46,0,0,0,.513-.081,8.8,8.8,0,0,0,.568-.753.406.406,0,0,1,.522-.158c.2.068,1.236.582,1.449.688s.355.158.406.248A1.812,1.812,0,0,1,11.509,10.272Z" transform="translate(1214 1059.373)" fill="#f6fbfe"/>
    </g>
  </g>
</svg>
