<svg id="footer_twiterr" xmlns="http://www.w3.org/2000/svg" xmlns:xlink="http://www.w3.org/1999/xlink" width="21.294" height="21.294" viewBox="0 0 21.294 21.294">
  <defs>
    <linearGradient id="linear-gradient" y1="0.5" x2="0.917" y2="0.5" gradientUnits="objectBoundingBox">
      <stop offset="0" stop-color="#706eec"/>
      <stop offset="1" stop-color="#b15bfe"/>
    </linearGradient>
  </defs>
  <rect id="Rectangle_30" data-name="Rectangle 30" width="21.294" height="21.294" rx="5" fill="url(#linear-gradient)"/>
  <path id="Path_291" data-name="Path 291" d="M11.332,16.42a2.427,2.427,0,0,1-2.25-1.682,2.4,2.4,0,0,0,1.04,0,2.419,2.419,0,0,1-1.549-1.158,2.345,2.345,0,0,1-.354-1.291,2.39,2.39,0,0,0,1.077.3,2.434,2.434,0,0,1-1-1.475,2.4,2.4,0,0,1,.273-1.748,6.926,6.926,0,0,0,4.986,2.552.645.645,0,0,0-.037-.266,2.419,2.419,0,0,1,4.116-2.021.125.125,0,0,0,.125.037,4.868,4.868,0,0,0,1.409-.538,2.478,2.478,0,0,1-1.01,1.313,4.647,4.647,0,0,0,1.35-.361l-.243.361a4.75,4.75,0,0,1-.878.833.081.081,0,0,0-.037.074,6.705,6.705,0,0,1-.044,1.077,7.125,7.125,0,0,1-.627,2.154,6.963,6.963,0,0,1-1.305,1.91,6.468,6.468,0,0,1-3.326,1.851,7.221,7.221,0,0,1-1.35.162,6.837,6.837,0,0,1-3.865-1.04l-.059-.037a4.9,4.9,0,0,0,2.4-.347,4.816,4.816,0,0,0,1.151-.656Z" transform="translate(-2.673 -3.063)" fill="#fff" fill-rule="evenodd"/>
</svg>
