<svg xmlns="http://www.w3.org/2000/svg" width="184.16" height="104.02" viewBox="0 0 184.16 104.02">
  <g id="Club_Quest_Capital_Logo" data-name="Club Quest Capital Logo" transform="translate(-48.637 -39.474)">
    <g id="Group_13337" data-name="Group 13337" transform="translate(108.965 39.474)">
      <path id="Subtraction_39" data-name="Subtraction 39" d="M31.71,63.421A31.719,31.719,0,0,1,19.367,2.492,31.718,31.718,0,0,1,44.053,60.929,31.511,31.511,0,0,1,31.71,63.421Zm0-47.825A16.115,16.115,0,1,0,47.825,31.71,16.133,16.133,0,0,0,31.71,15.6Z" transform="translate(0 0.001)" fill="#005cda"/>
      <path id="Union_4" data-name="Union 4" d="M6.705,46.939l.161-.009L6.859,46.9A16.158,16.158,0,0,0,17.584,31.71,16.117,16.117,0,0,0,4.438,15.871,8.348,8.348,0,0,0,9.266,8.318,8.367,8.367,0,0,0,1.151,0c.033,0,.065,0,.1,0h.22A31.513,31.513,0,0,1,13.812,2.492a31.614,31.614,0,0,1,10.079,6.8,31.614,31.614,0,0,1,6.8,10.079,31.816,31.816,0,0,1,0,24.686,31.594,31.594,0,0,1-6.8,10.079,31.782,31.782,0,0,1-5.338,4.3C12.6,63.932,5.688,61.9.309,72.311-1.695,53.92,6.705,46.939,6.705,46.939Z" transform="translate(30.241 0)" fill="#bbdbfc"/>
    </g>
    <path id="Path_10484" data-name="Path 10484" d="M.462-2.579a7.257,7.257,0,0,1,.865-3.567A6.185,6.185,0,0,1,3.741-8.589a7.007,7.007,0,0,1,3.51-.875,6.716,6.716,0,0,1,4.116,1.269,6.1,6.1,0,0,1,2.289,3.462H10.039A2.92,2.92,0,0,0,8.895-6.022a3.217,3.217,0,0,0-1.683-.442A3.141,3.141,0,0,0,4.751-5.406a4.093,4.093,0,0,0-.942,2.827A4.093,4.093,0,0,0,4.751.248,3.141,3.141,0,0,0,7.212,1.306,3.217,3.217,0,0,0,8.895.863,2.92,2.92,0,0,0,10.039-.425h3.616a6.051,6.051,0,0,1-2.289,3.452,6.751,6.751,0,0,1-4.116,1.26,7.007,7.007,0,0,1-3.51-.875A6.2,6.2,0,0,1,1.327.979,7.2,7.2,0,0,1,.462-2.579Zm18.5-7.462V4.19H15.674V-10.041Zm12.981,3.5V4.19H28.655V2.729A3.609,3.609,0,0,1,27.3,3.873a4.138,4.138,0,0,1-1.894.433,4.243,4.243,0,0,1-2.173-.548A3.7,3.7,0,0,1,21.77,2.171a5.4,5.4,0,0,1-.519-2.442V-6.541h3.269V-.714A2.355,2.355,0,0,0,25.078.96a1.956,1.956,0,0,0,1.5.6A1.98,1.98,0,0,0,28.1.96a2.355,2.355,0,0,0,.558-1.673V-6.541ZM37.6-5.021a3.384,3.384,0,0,1,1.327-1.212,4.144,4.144,0,0,1,1.981-.462,4.443,4.443,0,0,1,2.4.673,4.662,4.662,0,0,1,1.7,1.923,6.414,6.414,0,0,1,.625,2.9,6.474,6.474,0,0,1-.625,2.914,4.718,4.718,0,0,1-1.7,1.942,4.4,4.4,0,0,1-2.4.683,4.144,4.144,0,0,1-1.981-.452A3.5,3.5,0,0,1,37.6,2.69v1.5H34.309V-10.041H37.6ZM42.29-1.194a2.654,2.654,0,0,0-.683-1.933,2.255,2.255,0,0,0-1.683-.7,2.218,2.218,0,0,0-1.664.712,2.689,2.689,0,0,0-.683,1.942A2.689,2.689,0,0,0,38.261.767a2.218,2.218,0,0,0,1.664.712A2.235,2.235,0,0,0,41.6.758,2.7,2.7,0,0,0,42.29-1.194ZM61.06,6.5,59.329,4.171a7.64,7.64,0,0,1-1.5.154,7.046,7.046,0,0,1-3.491-.885A6.613,6.613,0,0,1,51.82.969,6.907,6.907,0,0,1,50.887-2.6a6.855,6.855,0,0,1,.933-3.558,6.634,6.634,0,0,1,2.519-2.462A7.046,7.046,0,0,1,57.829-9.5a7.046,7.046,0,0,1,3.491.885,6.5,6.5,0,0,1,2.5,2.462A6.967,6.967,0,0,1,64.733-2.6a7.093,7.093,0,0,1-.7,3.164A6.523,6.523,0,0,1,62.08,2.94L65.041,6.5ZM54.252-2.6A4.081,4.081,0,0,0,55.224.258a3.35,3.35,0,0,0,2.606,1.067A3.313,3.313,0,0,0,60.416.248,4.088,4.088,0,0,0,61.387-2.6a4.081,4.081,0,0,0-.971-2.856,3.328,3.328,0,0,0-2.587-1.067,3.366,3.366,0,0,0-2.606,1.058A4.073,4.073,0,0,0,54.252-2.6ZM77.2-6.541V4.19H73.907V2.729a3.609,3.609,0,0,1-1.356,1.144,4.138,4.138,0,0,1-1.894.433,4.243,4.243,0,0,1-2.173-.548,3.7,3.7,0,0,1-1.462-1.587A5.4,5.4,0,0,1,66.5-.271V-6.541h3.269V-.714A2.355,2.355,0,0,0,70.33.96a1.956,1.956,0,0,0,1.5.6,1.98,1.98,0,0,0,1.519-.6,2.355,2.355,0,0,0,.558-1.673V-6.541ZM89.677-1.348a8.394,8.394,0,0,1-.058.962H82.176a2.236,2.236,0,0,0,.644,1.529,1.968,1.968,0,0,0,1.394.529A1.728,1.728,0,0,0,85.927.633h3.5a4.8,4.8,0,0,1-.971,1.9A4.862,4.862,0,0,1,86.7,3.863a5.652,5.652,0,0,1-2.365.481,5.756,5.756,0,0,1-2.808-.673A4.788,4.788,0,0,1,79.6,1.748a5.937,5.937,0,0,1-.692-2.923A6,6,0,0,1,79.59-4.1,4.726,4.726,0,0,1,81.5-6.022a5.8,5.8,0,0,1,2.827-.673,5.738,5.738,0,0,1,2.769.654,4.7,4.7,0,0,1,1.894,1.865A5.662,5.662,0,0,1,89.677-1.348Zm-3.366-.865a1.691,1.691,0,0,0-.577-1.346,2.124,2.124,0,0,0-1.442-.5,2.083,2.083,0,0,0-1.394.481,2.135,2.135,0,0,0-.7,1.365Zm9.462,6.558a6.168,6.168,0,0,1-2.5-.481,4.27,4.27,0,0,1-1.731-1.317A3.465,3.465,0,0,1,90.831.671h3.25a1.25,1.25,0,0,0,.519.9,1.837,1.837,0,0,0,1.135.346,1.619,1.619,0,0,0,.952-.24.736.736,0,0,0,.337-.625.721.721,0,0,0-.481-.683,9.713,9.713,0,0,0-1.558-.49,14.625,14.625,0,0,1-1.923-.567,3.323,3.323,0,0,1-1.327-.942,2.568,2.568,0,0,1-.558-1.74,2.955,2.955,0,0,1,.51-1.683,3.431,3.431,0,0,1,1.5-1.2,5.744,5.744,0,0,1,2.356-.442,4.723,4.723,0,0,1,3.183,1,3.891,3.891,0,0,1,1.337,2.654H97.023a1.31,1.31,0,0,0-.49-.885,1.7,1.7,0,0,0-1.087-.327,1.5,1.5,0,0,0-.885.221.706.706,0,0,0-.308.606.739.739,0,0,0,.49.692,7.855,7.855,0,0,0,1.529.462,16.726,16.726,0,0,1,1.942.606A3.35,3.35,0,0,1,99.533-.7a2.721,2.721,0,0,1,.587,1.779,2.823,2.823,0,0,1-.529,1.683,3.5,3.5,0,0,1-1.519,1.164A5.81,5.81,0,0,1,95.773,4.344ZM108.12,1.4V4.19h-1.673a4.1,4.1,0,0,1-2.789-.875,3.616,3.616,0,0,1-1-2.856V-3.81H101.35V-6.541h1.308V-9.156h3.289v2.615H108.1V-3.81h-2.154V.5a.9.9,0,0,0,.231.692,1.126,1.126,0,0,0,.769.212Zm5.346-3.981a7.257,7.257,0,0,1,.865-3.567,6.185,6.185,0,0,1,2.414-2.442,7.007,7.007,0,0,1,3.51-.875,6.716,6.716,0,0,1,4.116,1.269,6.1,6.1,0,0,1,2.289,3.462h-3.616A2.92,2.92,0,0,0,121.9-6.022a3.217,3.217,0,0,0-1.683-.442,3.141,3.141,0,0,0-2.462,1.058,4.093,4.093,0,0,0-.942,2.827,4.093,4.093,0,0,0,.942,2.827,3.141,3.141,0,0,0,2.462,1.058A3.217,3.217,0,0,0,121.9.863a2.92,2.92,0,0,0,1.144-1.289h3.616a6.051,6.051,0,0,1-2.289,3.452,6.751,6.751,0,0,1-4.116,1.26,7.007,7.007,0,0,1-3.51-.875A6.2,6.2,0,0,1,114.331.979,7.2,7.2,0,0,1,113.466-2.579Zm14.558,1.385a6.413,6.413,0,0,1,.625-2.9,4.662,4.662,0,0,1,1.7-1.923,4.443,4.443,0,0,1,2.4-.673,4.13,4.13,0,0,1,1.99.462,3.4,3.4,0,0,1,1.317,1.212V-6.541h3.289V4.19h-3.289V2.671a3.551,3.551,0,0,1-1.337,1.212,4.13,4.13,0,0,1-1.99.462,4.363,4.363,0,0,1-2.385-.683,4.718,4.718,0,0,1-1.7-1.942A6.474,6.474,0,0,1,128.024-1.194Zm8.039.019a2.689,2.689,0,0,0-.683-1.942,2.218,2.218,0,0,0-1.664-.712,2.233,2.233,0,0,0-1.664.7,2.655,2.655,0,0,0-.683,1.933,2.723,2.723,0,0,0,.683,1.952,2.2,2.2,0,0,0,1.664.721A2.218,2.218,0,0,0,135.38.767,2.689,2.689,0,0,0,136.063-1.175Zm8.962-3.846a3.57,3.57,0,0,1,1.327-1.212,4.074,4.074,0,0,1,1.981-.462,4.443,4.443,0,0,1,2.4.673,4.662,4.662,0,0,1,1.7,1.923,6.414,6.414,0,0,1,.625,2.9,6.474,6.474,0,0,1-.625,2.914,4.718,4.718,0,0,1-1.7,1.942,4.4,4.4,0,0,1-2.4.683,4.088,4.088,0,0,1-1.971-.462,3.614,3.614,0,0,1-1.337-1.192V9.306h-3.289V-6.541h3.289Zm4.692,3.827a2.654,2.654,0,0,0-.683-1.933,2.255,2.255,0,0,0-1.683-.7,2.218,2.218,0,0,0-1.664.712,2.689,2.689,0,0,0-.683,1.942,2.689,2.689,0,0,0,.683,1.942,2.218,2.218,0,0,0,1.664.712,2.235,2.235,0,0,0,1.673-.721A2.7,2.7,0,0,0,149.717-1.194Zm6.731-6.462a1.993,1.993,0,0,1-1.413-.51,1.651,1.651,0,0,1-.548-1.26,1.673,1.673,0,0,1,.548-1.279,1.993,1.993,0,0,1,1.413-.51,1.967,1.967,0,0,1,1.394.51,1.673,1.673,0,0,1,.548,1.279,1.651,1.651,0,0,1-.548,1.26A1.967,1.967,0,0,1,156.448-7.656Zm1.635,1.115V4.19h-3.289V-6.541ZM166.449,1.4V4.19h-1.673a4.1,4.1,0,0,1-2.789-.875,3.616,3.616,0,0,1-1-2.856V-3.81h-1.308V-6.541h1.308V-9.156h3.289v2.615h2.154V-3.81h-2.154V.5a.9.9,0,0,0,.231.692,1.126,1.126,0,0,0,.769.212Zm1.173-2.6a6.413,6.413,0,0,1,.625-2.9,4.662,4.662,0,0,1,1.7-1.923,4.443,4.443,0,0,1,2.4-.673,4.13,4.13,0,0,1,1.99.462,3.4,3.4,0,0,1,1.317,1.212V-6.541h3.289V4.19h-3.289V2.671a3.551,3.551,0,0,1-1.337,1.212,4.13,4.13,0,0,1-1.99.462,4.364,4.364,0,0,1-2.385-.683,4.718,4.718,0,0,1-1.7-1.942A6.474,6.474,0,0,1,167.622-1.194Zm8.039.019a2.689,2.689,0,0,0-.683-1.942,2.218,2.218,0,0,0-1.664-.712,2.233,2.233,0,0,0-1.664.7,2.654,2.654,0,0,0-.683,1.933,2.723,2.723,0,0,0,.683,1.952,2.2,2.2,0,0,0,1.664.721,2.218,2.218,0,0,0,1.664-.712A2.689,2.689,0,0,0,175.661-1.175Zm8.962-8.866V4.19h-3.289V-10.041Z" transform="translate(48.175 134.188)" fill="#fff"/>
  </g>
</svg>
