<svg xmlns="http://www.w3.org/2000/svg" width="27" height="27" viewBox="0 0 27 27">
  <g id="logout" transform="translate(-43 -827)">
    <g id="Group_13340" data-name="Group 13340" transform="translate(48.312 832.247)">
      <path id="Path_54" data-name="Path 54" d="M13.439,16.194H9.84a.9.9,0,0,1,0-1.8h3.6a1.8,1.8,0,0,0,1.8-1.8v-9a1.8,1.8,0,0,0-1.8-1.8h-3.6a.9.9,0,1,1,0-1.8h3.6a3.6,3.6,0,0,1,3.6,3.6v9A3.6,3.6,0,0,1,13.439,16.194Z" transform="translate(-1.744 0)" fill="#9a9a9a"/>
      <path id="Path_55" data-name="Path 55" d="M7.461,7.124A.9.9,0,1,1,8.733,5.852l2.7,2.7a.9.9,0,0,1,0,1.272l-2.7,2.7A.9.9,0,0,1,7.461,11.25L8.614,10.1H.9a.9.9,0,1,1,0-1.8H8.635Z" transform="translate(0 -1.09)" fill="#9a9a9a"/>
    </g>
    <rect id="Rectangle_6459" data-name="Rectangle 6459" width="27" height="27" transform="translate(43 827)" fill="none"/>
  </g>
</svg>
