<svg id="Notification_Icon" data-name="Notification Icon" xmlns="http://www.w3.org/2000/svg" width="24.624" height="28.141" viewBox="0 0 24.624 28.141">
  <path id="Icon_awesome-bell" data-name="Icon awesome-bell" d="M12.312,28.141A3.517,3.517,0,0,1,8.8,24.624h7.032A3.517,3.517,0,0,1,12.312,28.141ZM.473,19.913c1.062-1.141,3.049-2.858,3.049-8.48A8.68,8.68,0,0,1,10.554,2.9V1.759a1.758,1.758,0,1,1,3.515,0V2.9A8.68,8.68,0,0,1,21.1,11.432c0,5.623,1.987,7.339,3.049,8.48a1.717,1.717,0,0,1,.473,1.193,1.76,1.76,0,0,1-1.764,1.759H1.764A1.76,1.76,0,0,1,0,21.106a1.716,1.716,0,0,1,.473-1.193Z" transform="translate(0)" fill="#b5b3b3"/>
  <ellipse id="Ellipse_99" data-name="Ellipse 99" cx="3.788" cy="3.788" rx="3.788" ry="3.788" transform="translate(1.894 1.285)" fill="#e63248"/>
</svg>
