<svg xmlns="http://www.w3.org/2000/svg" width="13.838" height="16.145" viewBox="0 0 13.838 16.145">
  <path id="f1d657aeb8cc5b01ccbb9e93afd59faa" d="M141.226,3.424a2.1,2.1,0,0,1,.432.685,2.08,2.08,0,0,1,.18.793V15.28a.861.861,0,0,1-.865.865H128.865A.861.861,0,0,1,128,15.28V.865a.834.834,0,0,1,.252-.613A.834.834,0,0,1,128.865,0h8.072a2.08,2.08,0,0,1,.793.18,2.1,2.1,0,0,1,.685.432Zm-4-2.2V4.613h3.388a.984.984,0,0,0-.2-.369l-2.82-2.82A.984.984,0,0,0,137.226,1.225Zm3.46,13.766V5.766h-3.748a.861.861,0,0,1-.865-.865V1.153h-6.919V14.992Zm-4.631-5.343a6.855,6.855,0,0,0,.757.5,8.941,8.941,0,0,1,1.054-.063q1.324,0,1.595.441a.435.435,0,0,1,.018.468.026.026,0,0,1-.009.018l-.018.018v.009q-.054.342-.64.342a3.717,3.717,0,0,1-1.036-.18,6.568,6.568,0,0,1-1.171-.477,16.224,16.224,0,0,0-3.532.748q-1.378,2.36-2.18,2.36a.524.524,0,0,1-.252-.063l-.216-.108q-.009-.009-.054-.045a.372.372,0,0,1-.054-.324,1.956,1.956,0,0,1,.5-.824,4.354,4.354,0,0,1,1.189-.869.131.131,0,0,1,.207.054.052.052,0,0,1,.018.036q.468-.766.964-1.775a13.749,13.749,0,0,0,.937-2.36,7.283,7.283,0,0,1-.275-1.437,3.5,3.5,0,0,1,.059-1.149q.1-.36.378-.36h.2a.38.38,0,0,1,.315.135.72.72,0,0,1,.081.613.2.2,0,0,1-.036.072.234.234,0,0,1,.009.072v.27a11.794,11.794,0,0,1-.126,1.73A4.558,4.558,0,0,0,136.054,9.649Zm-5.189,3.7a3.978,3.978,0,0,0,1.234-1.423,5.137,5.137,0,0,0-.788.757A2.994,2.994,0,0,0,130.865,13.352Zm3.586-8.289a2.679,2.679,0,0,0-.018,1.189q.009-.063.063-.4,0-.027.063-.387a.2.2,0,0,1,.036-.072.026.026,0,0,1-.009-.018.018.018,0,0,0,0-.014.018.018,0,0,1,0-.014.519.519,0,0,0-.117-.324.026.026,0,0,1-.009.018Zm-1.117,5.955a13.215,13.215,0,0,1,2.559-.73,1.361,1.361,0,0,1-.117-.086,1.61,1.61,0,0,1-.144-.122A4.772,4.772,0,0,1,134.487,8.5a12.038,12.038,0,0,1-.748,1.775Q133.469,10.775,133.334,11.018Zm5.82-.144a2.156,2.156,0,0,0-1.261-.216,3.408,3.408,0,0,0,1.117.252.873.873,0,0,0,.162-.009Q139.172,10.892,139.154,10.874Z" transform="translate(-128)" fill="#fff"/>
</svg>
