<svg xmlns="http://www.w3.org/2000/svg" xmlns:xlink="http://www.w3.org/1999/xlink" width="27" height="27" viewBox="0 0 27 27">
  <defs>
    <clipPath id="clip-path">
      <rect id="Rectangle_6442" data-name="Rectangle 6442" width="14.604" height="18.342" transform="translate(0 0)" fill="#005CDA"/>
    </clipPath>
  </defs>
  <g id="Profile" transform="translate(-43 -250)">
    <g id="Group_13346" data-name="Group 13346" transform="translate(0.492)">
      <g id="Group_13338" data-name="Group 13338" transform="translate(48.508 254.46)" clip-path="url(#clip-path)">
        <path id="Path_10469" data-name="Path 10469" d="M11.383,37.776c-.048.044-.1.086-.146.128s-.1.085-.152.127c-.106.084-.214.166-.326.243L8.46,43,8,40.278l.68-1.094c-.083.018-.166.035-.25.05a5.8,5.8,0,0,1-.655.078c-.121.008-.243.013-.367.013a5.879,5.879,0,0,1-1.371-.163l.691,1.117L6.3,43.049,3.75,38.041c-.117-.093-.231-.191-.341-.293l-.046.041C-.05,40.739,0,45.9,0,46.121L0,46.3H14.6L14.6,46.11c-.242-5.965-2.628-7.938-3.214-8.334" transform="translate(0 -27.962)" fill="#005CDA"/>
        <path id="Path_10470" data-name="Path 10470" d="M12.925,0a5.48,5.48,0,1,0,5.481,5.481A5.486,5.486,0,0,0,12.925,0" transform="translate(-5.515 0)" fill="#005CDA"/>
      </g>
    </g>
    <rect id="Rectangle_6448" data-name="Rectangle 6448" width="27" height="27" transform="translate(43 250)" fill="none"/>
  </g>
</svg>
