<svg id="Team" xmlns="http://www.w3.org/2000/svg" width="27" height="27" viewBox="0 0 27 27" >
  <g id="Group_13342" data-name="Group 13342" transform="translate(2 5.701)" >
    <path id="Path_10471" data-name="Path 10471" d="M262.326,923.437a3.935,3.935,0,1,0,3.343,6,5.09,5.09,0,0,1-.419-4.688,3.923,3.923,0,0,0-2.925-1.312" transform="translate(-257.005 -922.232)" fill="#005CDA"/>
    <path id="Path_10472" data-name="Path 10472" d="M261.174,950.659c-.048.038-.107.082-.173.128a2.7,2.7,0,0,1-5.066-.024c-.123-.088-.216-.162-.271-.207-.02-.018-.041-.034-.06-.052l-.034.029c-2.449,2.118-2.416,5.826-2.413,5.982l0,.131h6.232a9.871,9.871,0,0,1,2.236-5.883,2.715,2.715,0,0,0-.3-.24c-.034.031-.069.061-.1.092l-.052.043" transform="translate(-253.157 -942.131)" fill="#005CDA"/>
    <path id="Path_10473" data-name="Path 10473" d="M287.976,950l-.12.1-.059.049a5.438,5.438,0,0,1-2.437,1.067c-.116.016-.231.034-.349.042-.1.006-.2.01-.3.01a4.823,4.823,0,0,1-1.068-.122,5.8,5.8,0,0,1-2.154-1.116c-.022-.02-.047-.038-.068-.059l-.038.033c-2.8,2.425-2.766,6.669-2.763,6.849l0,.15h12l-.006-.159c-.2-4.9-2.16-6.525-2.641-6.85m-1.668,3.321-1.686-.86-1.686.86v-2.088l1.686.9,1.686-.9Z" transform="translate(-271.878 -941.746)" fill="#005CDA"/>
    <path id="Path_10474" data-name="Path 10474" d="M284.686,923.275a4.514,4.514,0,0,0,4.508,4.507h0a4.508,4.508,0,1,0-4.509-4.507" transform="translate(-276.338 -918.765)" fill="#005CDA"/>
    <path id="Path_10475" data-name="Path 10475" d="M324.164,958.032h5.059l0-.118a7.5,7.5,0,0,0-2.247-5.193l-.03-.026q-.106.1-.22.189l-1.565,3.047-.278-1.787.446-.721a3.778,3.778,0,0,1-.885.105c-.079,0-.158,0-.236-.009a3.709,3.709,0,0,1-.423-.05c-.054-.01-.108-.02-.162-.032l.439.706-.292,1.7a12.281,12.281,0,0,1,.393,2.186" transform="translate(-304.966 -943.744)" fill="#005CDA"/>
    <path id="Path_10476" data-name="Path 10476" d="M319,934.384a3.536,3.536,0,1,0-2.116-6.366,4.739,4.739,0,0,1-.87,4.718A3.535,3.535,0,0,0,319,934.384" transform="translate(-299.372 -925.081)" fill="#005CDA"/>
  </g>
  <rect id="Rectangle_6456" data-name="Rectangle 6456" width="27" height="27" fill="none"/>
</svg>
