<svg xmlns="http://www.w3.org/2000/svg" width="28" height="28" viewBox="0 0 28 28">
  <g id="telegram_icon" transform="translate(0.097 0.097)">
    <rect id="Rectangle_8578" data-name="Rectangle 8578" width="28" height="28" rx="14" transform="translate(-0.097 -0.097)" fill="#37aee2"/>
    <path id="Path_69184" data-name="Path 69184" d="M156.444,155.283c-.6,0-.543-.217-.706-.76l-1.738-5.7L167.306,141" transform="translate(-145.636 -133.342)" fill="#c8daea"/>
    <path id="Path_69185" data-name="Path 69185" d="M199,323.616a1.341,1.341,0,0,0,.869-.434l2.444-2.335L199.272,319" transform="translate(-188.192 -301.675)" fill="#a9c9dd"/>
    <path id="Path_69186" data-name="Path 69186" d="M70.384,129.666l7.332,5.377c.76.489,1.412.217,1.629-.76l2.987-14.012c.272-1.195-.489-1.738-1.3-1.358L63.6,125.647c-1.141.434-1.141,1.141-.217,1.412l4.508,1.412L78.2,121.9c.489-.272.923-.163.6.217" transform="translate(-59.305 -112.341)" fill="#f6fbfe"/>
  </g>
</svg>
