<svg xmlns="http://www.w3.org/2000/svg" xmlns:xlink="http://www.w3.org/1999/xlink" width="41.334" height="47.04" viewBox="0 0 41.334 47.04">
  <defs>
    <linearGradient id="linear-gradient" x1="0.5" x2="0.5" y2="1" gradientUnits="objectBoundingBox">
      <stop offset="0" stop-color="#bcd62b"/>
      <stop offset="1" stop-color="#98b400"/>
    </linearGradient>
    <clipPath id="clip-path">
      <rect id="Rectangle_7687" data-name="Rectangle 7687" width="41.334" height="36.08" fill="none"/>
    </clipPath>
  </defs>
  <g id="tree_img" data-name="tree img" transform="translate(-1009.332 -515.96)">
    <g id="Rectangle_7685" data-name="Rectangle 7685" transform="translate(1013 534)" stroke="#707070" stroke-width="1" fill="url(#linear-gradient)">
      <rect width="34" height="29" stroke="none"/>
      <rect x="0.5" y="0.5" width="33" height="28" fill="none"/>
    </g>
    <g id="Group_13490" data-name="Group 13490" transform="translate(1009.332 515.96)">
      <g id="Group_13489" data-name="Group 13489" transform="translate(0 0)" clip-path="url(#clip-path)">
        <path id="Path_13889" data-name="Path 13889" d="M1.142,17.568l1.324-.474.9-.54,1.288-.359s1.265.413,1.447.52a18.88,18.88,0,0,0,1.95.388l.564-.132a10.441,10.441,0,0,0,1.7.49,21.149,21.149,0,0,0,2.247.633c.681.125,1.362.342,2.032.516a4.66,4.66,0,0,0,.8.071,4.479,4.479,0,0,1,.83.167,2.17,2.17,0,0,1-.114.81l-1-.258a.269.269,0,0,1-.238.014c-1.064-.4-2.034.217-3.041.465l-.419.142L9.1,19.652A14.483,14.483,0,0,0,8.015,17.99a1.461,1.461,0,0,0-.724.075A.86.86,0,0,1,6.9,18.3l.014.029c.019.008.039.016.058.026.122.076.127.174.18.219L7.4,18.5a.23.23,0,0,1,.078-.024l.4-.123s.047.2.115.459c.016.008.031.013.048.024.227.142.251.541.4.717a2.2,2.2,0,0,0,1.137.758H10l.4.069.158-.01a.314.314,0,0,1,.242.079l1.081.187s1.938-.583,2.014-.664c.34-.357,1.91.592,2,.679a14.347,14.347,0,0,1,2.5,3.335l-1.245.026-.634-.237a.293.293,0,0,1-.151-.016,24.259,24.259,0,0,0-3.339-.539c-.751-.06-2.449-.137-2.581-.133a11.086,11.086,0,0,1-1.438-.641.324.324,0,0,1-.165,0L8.7,22.423a1.4,1.4,0,0,0-.091.338.817.817,0,0,1,.048.087,2.287,2.287,0,0,0,1.314.873,5.746,5.746,0,0,1,.825.113l-1.38.272a7.812,7.812,0,0,1-2.234-.131c-.26-.127-.815-.374-1.293-.579a5.434,5.434,0,0,1-.75-.145c-.11-.027-.146.343-.172.428-.061.2-.187.065.039.166.028.012.055.028.083.041.4.143.785.31,1.162.481a1.383,1.383,0,0,1,.322.205c.194.053.37.1.448.125l.475.141c.257.026.513.075.77.126.593-.145,1.2-.256,1.8-.37a1.827,1.827,0,0,1,.9-.008,13.9,13.9,0,0,0,2.574-.372c.331.057.662.112.993.172a1.209,1.209,0,0,1,.429-.05,3.181,3.181,0,0,1,1.107.338l.332.082.4.307.092.05a.253.253,0,0,1,.111.106l.763.588s.974.66,1.716,1.134a6.219,6.219,0,0,0,.133.676c-.016.174-.03.346-.041.512a19.555,19.555,0,0,0,.063,2.1c.029.689-.077,1.373-.065,2.062.02,1.132.2,2.275.166,3.416a2.454,2.454,0,0,0,1.339.348,4.454,4.454,0,0,1,1.344-.22,13.289,13.289,0,0,0,2.135.022.38.38,0,0,0-.021-.281,10.676,10.676,0,0,1-1.035-5.293,1.376,1.376,0,0,0-.074-.507,2.362,2.362,0,0,1-.021-1.2,3.4,3.4,0,0,1,.191-.618c1.121-.577,3.733-2.008,3.733-2.008A16.008,16.008,0,0,1,28.664,24.3c.2-.1,2.212-1.379,2.212-1.379l1.045.492,1.916.256,1.193.594A1.309,1.309,0,0,1,36.1,25.1c.127.391.234.788.368,1.176l1.121.808a13.9,13.9,0,0,0,1.541-.233.857.857,0,0,1,.33-.028c.092-.047.186-.09.28-.131a.282.282,0,0,0,.021-.023c-.07-.058-.145-.114-.213-.175l-1.938.268-.563-.858.065,0,1.583-.051,1.143-.391.721-.289c.173-.087.346-.173.511-.272.086-.088.179-.17.268-.256a.8.8,0,0,1-.225-.19.115.115,0,0,1-.018-.029.118.118,0,0,1-.048.016l-.038.009a7.249,7.249,0,0,1-1.694.791l-2.277.055s-.1-.29-.2-.627a3.146,3.146,0,0,1-.394-.6,2.5,2.5,0,0,0-.577-.674c-.077-.026-.154-.052-.23-.082a6.718,6.718,0,0,1-1.083-.548l-2.215-.342-.212-.169a5.149,5.149,0,0,0-.777-.338c-.371-.077-.684.2-1.037.263a2.678,2.678,0,0,0-.4.111l-.115.056a18.778,18.778,0,0,0-2.332,1.438,12.428,12.428,0,0,1-1.353,1.221l-.959.268a9.283,9.283,0,0,0,1.3-2.619c.069-.328.146-.655.225-.982l.113-.075a11.833,11.833,0,0,1,1.33-.52c.642-.309,1.9-.817,1.956-1.606a.61.61,0,0,1,.19-.332c.517-.339,1.163-.769,1.2-.827l.073-.03a9.914,9.914,0,0,1,1.034-.138h.009a12.566,12.566,0,0,0,2-.026l.236.053a6.777,6.777,0,0,1,1.8.386l.014,0,0,0,.021.007a.891.891,0,0,1,.378.342.711.711,0,0,0,.4.224.892.892,0,0,0,.071-.1c.011-.019.02-.038.03-.057-.008-.008-.016-.013-.024-.021h0l0,0c-.272-.267-.427-.765-.781-.856a.238.238,0,0,1-.187-.173l-1.851-.252s-.275-.174.4-.33a1.032,1.032,0,0,1,.153-.019.219.219,0,0,1,.22-.168,3.648,3.648,0,0,1,1.379,0,3.4,3.4,0,0,1,.687.295,4.722,4.722,0,0,0,.9.008l.38-.158.037-.026v-.008c-.008-.043-.022-.139-.047-.237-.078.016-.154.03-.226.041a2.04,2.04,0,0,1-1.39-.236,2.673,2.673,0,0,0-1.124-.157l-2.235.506h0l-.1.008a12.7,12.7,0,0,0-1.882.063,5.494,5.494,0,0,0-.7.218h0a4.686,4.686,0,0,0-.593.294,4.482,4.482,0,0,0-1,.845l0,0h0c-.06.067-.117.133-.167.2a.826.826,0,0,0-.244.427c-.024.362-.56.548-.864.732a7.011,7.011,0,0,1-1.3.589c.206-.756.429-1.509.661-2.259l.928-.524,1.836-.756,1.443-1.1,1.351-1.175,1.169-.3h.318l-.038-.078a.276.276,0,0,1-.183-.215c-.078,0-.156,0-.234,0-.046.008-.092.013-.138.023-.555.161-1.116.292-1.674.463a.271.271,0,0,1-.149.006l-.092.068c-.392.349-.867.772-.942.846-.131.129-1.84,1.192-1.84,1.192l-1.293.087c.068-.213,1.055-1.88,1.362-2.541a11.351,11.351,0,0,1,.735-1.519l.116-.017c1.108-.133,1.959-.351,3.08-.434l1.844,1.119H36l1.231.414.794.183.041.027c.048-.029.1-.058.145-.085a.5.5,0,0,0,0-.054l-.2-.12c-.1-.061-.2-.124-.3-.189l-.425-.162a4.148,4.148,0,0,1-1.237-.339,1.99,1.99,0,0,1-.842-.2,5.29,5.29,0,0,1-.9-.546c-.11-.013-.62-.435-.573-.564.149-.113.217-.2.372-.169a1.89,1.89,0,0,1,.6.372l.028.02a.229.229,0,0,1,.153-.069c.012,0,.031-.006.046-.01-.034-.069-.069-.137-.106-.2l-.323-.2h0a.493.493,0,0,0-.253-.128l-.315-.064-.13-.044.1-.157,2.123-.67,1.422.308.577.877.955.33.934-.244a.235.235,0,0,0-.12-.239l-.072-.046-.136.018-.287.142-.389-.113h-.033c-.033,0-.064-.01-.1-.015a.25.25,0,0,1-.11-.026,1.112,1.112,0,0,1-.217-.09l-.028-.008.007,0A2.282,2.282,0,0,1,37.7,10.6l-.035-.018a3.76,3.76,0,0,0-1.791-.495c-.583.152-1.167.3-1.761.4a2.711,2.711,0,0,0-.493.3,4.073,4.073,0,0,1-.712.463l-.1.1a17.8,17.8,0,0,1-2.825.594l-.227-.753a17.3,17.3,0,0,1,1.315-1.4,3.358,3.358,0,0,1,.318-.437c.023-.234.022-.5.036-.535a4.478,4.478,0,0,1,.728-1.092,1.822,1.822,0,0,1,.364-.234.276.276,0,0,1-.06-.041.671.671,0,0,0-.376.025.32.32,0,0,1-.25-.014c-.123.062-.247.124-.368.19-.113.216-.227.432-.335.65a1.784,1.784,0,0,1-.149.241,6.5,6.5,0,0,0-.221.769c-.006.1-.353.387-.666.63-.793-.859-1.605-2-1.234-2.89a3.017,3.017,0,0,1,.391-.64,10.36,10.36,0,0,1,.267-1.84,1.667,1.667,0,0,0-.469-.064c-.006.028-.012.056-.016.084a3.072,3.072,0,0,1-.282,2.065,3.618,3.618,0,0,1-.194.485c-.117.24-.286.442-.366.65.231.406.457.812.664,1.228a2.283,2.283,0,0,1,.259.551c.042.1.084.194.123.292a3.509,3.509,0,0,1,.183.577l-.529.389a3.069,3.069,0,0,0-.213.261q-.058.1-.114.193c.014.113.068.223.082.336,0,.026.006.053.009.079.116.143.094.712.209.847A21.548,21.548,0,0,1,26.981,16.2a7.29,7.29,0,0,0-1.041,2.152c-.4.918-.921,1.821-1.377,2.715a6.769,6.769,0,0,0-.437,1.175l-.143.167a5.948,5.948,0,0,0,.1-.6c.03-.276.188-.5.207-.79l.1-1.476a9.431,9.431,0,0,0-.24-2.485c-.127-.645-.263-1.338-.45-2.017-.094-.17-.156-.359-.046-.483a1.661,1.661,0,0,1,.19-.188.287.287,0,0,1,.064-.1,2.327,2.327,0,0,1,.606-.354c.31-.171.614-.352.926-.52.234-.126.47-.248.706-.371l.066-.069a11.659,11.659,0,0,1,.3-1.2c.028-.085.052-.171.077-.258,0-.075.007-.15.012-.226.012-.176.117-.706-.091-.8-.026-.012-.047-.023-.067-.035a2.053,2.053,0,0,0-.137.374c-.046.243-.692,1.593-.692,1.593s-1.354.6-1.444.623c-.057.014-.588.366-.965.619a5.993,5.993,0,0,0-.36-.691A3.857,3.857,0,0,0,21.377,11.3a9.368,9.368,0,0,0-1.222-.531l-.053-.4A2.869,2.869,0,0,1,20.441,9.3a2.532,2.532,0,0,1,.7-.444,1.609,1.609,0,0,1,.559-.317c.08-.031.161-.059.242-.087a.251.251,0,0,1,.173-.1l.123-.015a.424.424,0,0,0,.1-.068c-.031-.034-.062-.066-.093-.1q-.178.038-.355.068l-.958.337a3.847,3.847,0,0,1-.393.164l-.54.443s-.3.9-.51,1.448a4.871,4.871,0,0,1-.734-.241c-.218-.389-.456-.518-.586-.867a8.774,8.774,0,0,0-.491-1.215,9.114,9.114,0,0,1,.914-.384,5.719,5.719,0,0,1,.926-.44.481.481,0,0,0,.316-.284,2.442,2.442,0,0,1-.193-1.007l.24-.369,1.648-.519,1.359-1.342.609-1.37s-.436-.071-.527.152a11.683,11.683,0,0,1-1.089,1.689,3.989,3.989,0,0,1-1.432.581,2.926,2.926,0,0,0-.76.234c.007-.113.012-.229.014-.35a3.951,3.951,0,0,1,.73-2.9.212.212,0,0,1,.051-.038c.129-.241.235-.508.349-.774l.007-.018L21.256.047c-.036-.012-.074-.021-.111-.032l-.6.874-.63.781-.463,1.081a.476.476,0,0,0-.157.366l-.106,1.233a3.115,3.115,0,0,0-.1.523,18.176,18.176,0,0,1-.214,1.805l-.028.012-.239-.8L18.665,3l1.063-1.53L20.247,0c-.082.012-.167.02-.251.027-.268.573-.508,1.119-.508,1.119s-1.315,1.674-1.322,1.779l-.109,1.62-.163-.369-.679-.23-.433-.31.125.35a5.886,5.886,0,0,1,.783.483,2.794,2.794,0,0,0,.341.45c-.029.432-.051.762-.051.762l-.1,1.507a6.3,6.3,0,0,0-1.273.69.441.441,0,0,0-.043.576,2.413,2.413,0,0,1,.395.743l-1.065-.05L14.828,7.79l-.8-.359-.125-.057-.781-.352c-.067-.024-.135-.045-.2-.063a5.825,5.825,0,0,0-1.584-.05c-.006.011-.012.021-.017.033a2,2,0,0,1-.124.271c.074.041.149.079.224.117s.127.05.188.078l1.159.068,1.272.555.983,1.423.772.616,1.357.171a16.158,16.158,0,0,0,1.607,1.426c.615.352,1.3.645,1.944.957,1.235.6,1.354,2.127,1.692,3.291-.727-.182-1.8-.451-1.834-.471-.057-.031-1.318-1.684-1.4-1.824s-.819-.838-.952-1.036a9.2,9.2,0,0,0-1.156-.907.717.717,0,0,0-.22.024c-.151.042-.037.066.029.185.057.1.106.2.154.308l.079.026.614.853.888.692.446.781-1,.071s-.377-.168-.761-.346a.293.293,0,0,1-.221-.038,4.445,4.445,0,0,0-.65-.322,3.113,3.113,0,0,1-.5-.017c-.365-.046-.724-.122-1.088-.169-.028.006-.056.011-.083.017l-.018.008-.111.207a1.884,1.884,0,0,0,.384.236l.066-.025.106.045c.03,0,.061.007.091.014a4.846,4.846,0,0,1,1.645.843c.148.1.306.179.454.264.731.2,1.632-.014,2.355.206a1.117,1.117,0,0,1,.61.437,7.293,7.293,0,0,1,1.158.554c.389.254.706.577,1.083.844a.265.265,0,0,1,.114.316c-.008.015-.013.03-.02.045a2.5,2.5,0,0,1-.036.9c-.015.108-.033.215-.049.322-.028.4-.087.8-.124,1.173a6.5,6.5,0,0,1-.957,2.58c-.681-.4-1.363-.811-2.067-1.162-.587-.293-.851-.837-1.419-1.229a6.84,6.84,0,0,0-.308-1.77c-.156-.877-1.083-.828-1.878-1.118a16.161,16.161,0,0,0-2.5-.574l-.689-.729-.556-.778.351-.972.525-1.316.272-.344,2.032-.008.243-1.336c-.03-.023-.063-.044-.094-.066l-.438.3-.108.865-1.763-.1-.01.008c-.121.09-.246.173-.359.272a.382.382,0,0,1-.032.023l-1.044,2.194-.046.674.366,1.017c-.948-.227-1.908-.414-2.858-.625a.548.548,0,0,0-.192-.009,1.277,1.277,0,0,1-.279-.593,6.2,6.2,0,0,0-.345-1.726,1.143,1.143,0,0,0-.77-.58,2.344,2.344,0,0,1-.869-.369l-.231-.967.611-.615.858-.89.1-1.522-.125-.354c-.041,0-.082,0-.122,0q-.057.083-.111.166a4.565,4.565,0,0,1-.236,1.535.289.289,0,0,1-.187.154l-1.126.859s-.123.318-.2.582l-.92-1.278-.52-1.331a.322.322,0,0,1-.06-.2.233.233,0,0,1,.043-.123c-.007-.025-.014-.049-.019-.074a.26.26,0,0,1,.075-.236,1,1,0,0,1,.371-.734,3.663,3.663,0,0,1,.432-.605,3,3,0,0,1,.939-1.183,1.76,1.76,0,0,1-.188-.165,6.649,6.649,0,0,1-.555.435c-.264.409-.57.875-.615.9A10.5,10.5,0,0,0,3.912,8.61a12.02,12.02,0,0,1,.622,2.06l.724,1.909.066,0A2.944,2.944,0,0,0,7,13.8c.619.178.634,1.285.736,1.9l-1.762.041-.958-.234-.973.121-1.018.435-.583-.371-.4-.109a.286.286,0,0,1-.1.073l-.131.058.035.068L2.5,16.2l-.685.363s-.174.094-.351.173a1.991,1.991,0,0,1-.76.335A2.777,2.777,0,0,1,.3,17.11a3.445,3.445,0,0,0-.3.242l.044.151Z" transform="translate(0 0.001)" fill="#3d3d3d"/>
      </g>
    </g>
  </g>
</svg>
