<svg id="Close_icons_" data-name="Close icons " xmlns="http://www.w3.org/2000/svg" width="41.475" height="41.475" viewBox="0 0 41.475 41.475">
  <path id="Path_4421" data-name="Path 4421" d="M22.737,5.77A16.967,16.967,0,1,1,5.77,22.737,16.967,16.967,0,0,1,22.737,5.77m0-3.77A20.643,20.643,0,1,0,37.429,8.046,20.737,20.737,0,0,0,22.737,2Z" transform="translate(-2 -2)" fill="#005cda"/>
  <path id="Path_4422" data-name="Path 4422" d="M26.123,23.481,31.4,18.3a1.979,1.979,0,0,0,.189-2.545,1.791,1.791,0,0,0-2.828-.189l-5.279,5.279L18.2,15.563a1.791,1.791,0,0,0-2.828.189,1.979,1.979,0,0,0,.189,2.545l5.279,5.184-5.279,5.184a1.979,1.979,0,0,0-.189,2.545A1.791,1.791,0,0,0,18.2,31.4l5.279-5.279L28.762,31.4a1.791,1.791,0,0,0,2.828-.189,1.979,1.979,0,0,0-.189-2.545Z" transform="translate(-2.746 -2.744)" fill="#005cda"/>
</svg>
