<svg id="Withdraw" xmlns="http://www.w3.org/2000/svg" width="27" height="27" viewBox="0 0 27 27">
  <g id="Group_13343" data-name="Group 13343" transform="translate(2 6.574)">
    <path id="Path_10479" data-name="Path 10479" d="M318.755,823.06a4.205,4.205,0,0,1-1.783,1.317c-.917,1.064-2.91,1.8-5.221,1.8a10.543,10.543,0,0,1-1.053-.053,9.842,9.842,0,0,0,2.68.358c2.927,0,5.342-1.182,5.71-2.711a1.738,1.738,0,0,0,.05-.406,1.784,1.784,0,0,0-.152-.712,2.208,2.208,0,0,1-.231.406" transform="translate(-295.3 -809.717)" fill="#005CDA"/>
    <path id="Path_10480" data-name="Path 10480" d="M296.54,806.9a1.956,1.956,0,0,0,.089.223c.03.062.064.123.1.184a2.909,2.909,0,0,0,.624.712,4.306,4.306,0,0,0,.571.406,8.514,8.514,0,0,0,4.284,1.034,8.861,8.861,0,0,0,3.951-.849q.092-.047.18-.1c.052-.029.1-.058.152-.088a4.379,4.379,0,0,0,.571-.406,2.892,2.892,0,0,0,.622-.712,2.008,2.008,0,0,0,.189-.407,1.559,1.559,0,0,0,.044-.152,1.737,1.737,0,0,0,.051-.407c0-1.721-2.579-3.117-5.761-3.117s-5.761,1.4-5.761,3.117c0,.022,0,.043,0,.065a2.676,2.676,0,0,0-1.63,2.172,1.709,1.709,0,0,0,.051.407,3,3,0,0,0,1.6,1.775q.245.135.519.254a9.191,9.191,0,0,0,3.6.682,9.834,9.834,0,0,0,2.679-.358,10.5,10.5,0,0,1-1.053.053c-2.453,0-4.547-.83-5.378-2a2.257,2.257,0,0,1-.231-.407,1.786,1.786,0,0,1-.153-.712,1.735,1.735,0,0,1,.051-.406,2.061,2.061,0,0,0,.333.711,2.9,2.9,0,0,0,.353.407,7.494,7.494,0,0,0,5.025,1.593,9.189,9.189,0,0,0,3.6-.683c.182-.079.355-.164.519-.254a4.325,4.325,0,0,0,.91-.656,2.9,2.9,0,0,0,.353-.407,2.055,2.055,0,0,0,.333-.711,1.737,1.737,0,0,0,.051-.406c0-.051,0-.1-.007-.153a1.749,1.749,0,0,1-.087.406,2.231,2.231,0,0,1-.406.712,3.222,3.222,0,0,1-.406.407,4.581,4.581,0,0,1-.724.495c-.073.041-.148.08-.225.119a8.91,8.91,0,0,1-3.906.827,7.76,7.76,0,0,1-4.855-1.44,3.2,3.2,0,0,1-.406-.407,2.236,2.236,0,0,1-.406-.712,1.778,1.778,0,0,1-.087-.406c0-.033.008-.065.013-.1l-.017.01c0-.022,0-.043,0-.065a1.736,1.736,0,0,1,.051-.407c.013.051.027.1.044.152m2.223-.974h.431a1.208,1.208,0,0,1,.115-.348c.007-.014.012-.029.02-.044a1.584,1.584,0,0,1,1.235-.756l.145.483.06.2.07.231a.908.908,0,0,0-.51.232h1.11a3.21,3.21,0,0,1,.221-.41,1.832,1.832,0,0,1,.58-.577,2.436,2.436,0,0,1,2.546.221,1.172,1.172,0,0,1,.267.4,1.663,1.663,0,0,1,.109.363h.473v.45h-.459a1.282,1.282,0,0,1-.065.279,1.176,1.176,0,0,1-.157.3,1.235,1.235,0,0,1-.253.259,1.851,1.851,0,0,1-.749.323,3.268,3.268,0,0,1-.487.066l-.029-.14-.164-.8.078,0,.079-.008a1.019,1.019,0,0,0,.647-.273H302.7c-.016.036-.032.071-.049.106s-.033.07-.051.1a1.483,1.483,0,0,1-1.036.825,2.79,2.79,0,0,1-.712.068h0a1.783,1.783,0,0,1-1.387-.526,1.2,1.2,0,0,1-.269-.576h-.436Z" transform="translate(-284.129 -796.047)" fill="#005CDA"/>
    <path id="Path_10481" data-name="Path 10481" d="M282.7,798.656a4.2,4.2,0,0,1-1.782,1.317c-.917,1.063-2.91,1.8-5.222,1.8a10.431,10.431,0,0,1-1.053-.053,9.837,9.837,0,0,0,2.68.358c2.927,0,5.342-1.181,5.71-2.711a1.752,1.752,0,0,0,.05-.407,1.778,1.778,0,0,0-.153-.711,2.169,2.169,0,0,1-.231.406" transform="translate(-269.936 -792.548)" fill="#005CDA"/>
    <path id="Path_10482" data-name="Path 10482" d="M260.485,782.5a1.959,1.959,0,0,0,.089.223c.029.062.064.123.1.184a2.928,2.928,0,0,0,.624.712,4.384,4.384,0,0,0,.571.406,8.518,8.518,0,0,0,4.284,1.033,8.857,8.857,0,0,0,3.951-.85c.061-.031.121-.063.18-.1l.153-.087a4.485,4.485,0,0,0,.571-.406,2.908,2.908,0,0,0,.622-.712,2.036,2.036,0,0,0,.189-.407c.017-.05.031-.1.044-.152a1.739,1.739,0,0,0,.051-.407c0-1.722-2.579-3.117-5.761-3.117s-5.761,1.4-5.761,3.117c0,.021,0,.043,0,.065a2.676,2.676,0,0,0-1.63,2.172,1.721,1.721,0,0,0,.051.406,3,3,0,0,0,1.6,1.775c.163.091.337.175.519.254a9.193,9.193,0,0,0,3.6.682,9.837,9.837,0,0,0,2.68-.358,10.516,10.516,0,0,1-1.053.053c-2.453,0-4.547-.83-5.378-2a2.247,2.247,0,0,1-.231-.406,1.789,1.789,0,0,1-.153-.712,1.708,1.708,0,0,1,.051-.407,2.073,2.073,0,0,0,.333.712,2.912,2.912,0,0,0,.353.406,7.5,7.5,0,0,0,5.025,1.592,9.184,9.184,0,0,0,3.6-.683c.182-.079.355-.163.519-.253a4.339,4.339,0,0,0,.91-.656,2.876,2.876,0,0,0,.353-.406,2.067,2.067,0,0,0,.333-.712,1.732,1.732,0,0,0,.051-.407c0-.051,0-.1-.007-.152a1.787,1.787,0,0,1-.088.407,2.243,2.243,0,0,1-.406.712,3.287,3.287,0,0,1-.406.406,4.5,4.5,0,0,1-.724.494c-.072.041-.148.08-.224.119a8.9,8.9,0,0,1-3.906.827,7.763,7.763,0,0,1-4.855-1.44,3.19,3.19,0,0,1-.406-.406,2.231,2.231,0,0,1-.406-.712,1.784,1.784,0,0,1-.087-.407c0-.033.009-.065.013-.1l-.017.009c0-.021,0-.043,0-.064a1.7,1.7,0,0,1,.051-.406c.013.051.027.1.044.152m2.223-.975h.431a1.222,1.222,0,0,1,.114-.347c.007-.015.012-.03.021-.044a1.584,1.584,0,0,1,1.234-.756l.145.483.061.2.069.231a.911.911,0,0,0-.51.232h1.11a3.365,3.365,0,0,1,.221-.41,1.9,1.9,0,0,1,.294-.357,1.812,1.812,0,0,1,.286-.219,2.435,2.435,0,0,1,2.547.221,1.18,1.18,0,0,1,.268.4,1.711,1.711,0,0,1,.108.362h.472v.451h-.458a1.259,1.259,0,0,1-.066.279,1.153,1.153,0,0,1-.157.3,1.243,1.243,0,0,1-.253.259,1.845,1.845,0,0,1-.75.323,3.179,3.179,0,0,1-.486.065l-.029-.139-.165-.8.079,0,.079-.008a1.019,1.019,0,0,0,.647-.273h-1.374l-.049.106c-.017.035-.034.07-.051.1a1.486,1.486,0,0,1-1.036.825,2.8,2.8,0,0,1-.712.067h0a1.782,1.782,0,0,1-1.387-.526,1.194,1.194,0,0,1-.268-.576h-.436Z" transform="translate(-258.764 -778.82)" fill="#005CDA"/>
  </g>
  <rect id="Rectangle_6454" data-name="Rectangle 6454" width="27" height="27" fill="none"/>
</svg>
